<mxfile host="app.diagrams.net" modified="2023-09-21T07:28:08.830Z" agent="Mozilla/5.0 (Windows NT 10.0; Win64; x64) AppleWebKit/537.36 (KHTML, like Gecko) Chrome/116.0.0.0 Safari/537.36" etag="SX9AwjAuZu4Th2ONQtYJ" version="21.7.5" type="github">
  <diagram name="第 1 页" id="CIZObxfwiu4nC39L3cNf">
    <mxGraphModel dx="1518" dy="726" grid="1" gridSize="10" guides="1" tooltips="1" connect="1" arrows="1" fold="1" page="1" pageScale="1" pageWidth="827" pageHeight="1169" math="0" shadow="0">
      <root>
        <mxCell id="0" />
        <mxCell id="1" parent="0" />
        <mxCell id="7n34La2IfHk0FEFPZ-w6-3" value="" style="edgeStyle=orthogonalEdgeStyle;rounded=0;orthogonalLoop=1;jettySize=auto;html=1;" edge="1" parent="1" source="7n34La2IfHk0FEFPZ-w6-1" target="7n34La2IfHk0FEFPZ-w6-2">
          <mxGeometry relative="1" as="geometry" />
        </mxCell>
        <mxCell id="7n34La2IfHk0FEFPZ-w6-1" value="开始" style="strokeWidth=2;html=1;shape=mxgraph.flowchart.terminator;whiteSpace=wrap;" vertex="1" parent="1">
          <mxGeometry x="330" y="40" width="60" height="30" as="geometry" />
        </mxCell>
        <mxCell id="7n34La2IfHk0FEFPZ-w6-5" value="" style="edgeStyle=orthogonalEdgeStyle;rounded=0;orthogonalLoop=1;jettySize=auto;html=1;" edge="1" parent="1" source="7n34La2IfHk0FEFPZ-w6-2" target="7n34La2IfHk0FEFPZ-w6-4">
          <mxGeometry relative="1" as="geometry" />
        </mxCell>
        <mxCell id="7n34La2IfHk0FEFPZ-w6-8" value="是" style="edgeLabel;html=1;align=center;verticalAlign=middle;resizable=0;points=[];" vertex="1" connectable="0" parent="7n34La2IfHk0FEFPZ-w6-5">
          <mxGeometry x="-0.6601" y="-2" relative="1" as="geometry">
            <mxPoint x="2" y="11" as="offset" />
          </mxGeometry>
        </mxCell>
        <mxCell id="7n34La2IfHk0FEFPZ-w6-7" value="" style="edgeStyle=orthogonalEdgeStyle;rounded=0;orthogonalLoop=1;jettySize=auto;html=1;" edge="1" parent="1" source="7n34La2IfHk0FEFPZ-w6-2" target="7n34La2IfHk0FEFPZ-w6-6">
          <mxGeometry relative="1" as="geometry" />
        </mxCell>
        <mxCell id="7n34La2IfHk0FEFPZ-w6-9" value="否" style="edgeLabel;html=1;align=center;verticalAlign=middle;resizable=0;points=[];" vertex="1" connectable="0" parent="7n34La2IfHk0FEFPZ-w6-7">
          <mxGeometry x="-0.1216" y="2" relative="1" as="geometry">
            <mxPoint as="offset" />
          </mxGeometry>
        </mxCell>
        <mxCell id="7n34La2IfHk0FEFPZ-w6-2" value="是否存在下一个选项" style="rhombus;whiteSpace=wrap;html=1;strokeWidth=2;" vertex="1" parent="1">
          <mxGeometry x="288.43" y="100" width="143.13" height="60" as="geometry" />
        </mxCell>
        <mxCell id="7n34La2IfHk0FEFPZ-w6-11" value="" style="edgeStyle=orthogonalEdgeStyle;rounded=0;orthogonalLoop=1;jettySize=auto;html=1;" edge="1" parent="1" source="7n34La2IfHk0FEFPZ-w6-4" target="7n34La2IfHk0FEFPZ-w6-10">
          <mxGeometry relative="1" as="geometry" />
        </mxCell>
        <mxCell id="7n34La2IfHk0FEFPZ-w6-12" value="是" style="edgeLabel;html=1;align=center;verticalAlign=middle;resizable=0;points=[];" vertex="1" connectable="0" parent="7n34La2IfHk0FEFPZ-w6-11">
          <mxGeometry x="-0.1921" y="-1" relative="1" as="geometry">
            <mxPoint as="offset" />
          </mxGeometry>
        </mxCell>
        <mxCell id="7n34La2IfHk0FEFPZ-w6-14" value="" style="edgeStyle=orthogonalEdgeStyle;rounded=0;orthogonalLoop=1;jettySize=auto;html=1;" edge="1" parent="1" source="7n34La2IfHk0FEFPZ-w6-4">
          <mxGeometry relative="1" as="geometry">
            <mxPoint x="472.5" y="240" as="targetPoint" />
          </mxGeometry>
        </mxCell>
        <mxCell id="7n34La2IfHk0FEFPZ-w6-15" value="否" style="edgeLabel;html=1;align=center;verticalAlign=middle;resizable=0;points=[];" vertex="1" connectable="0" parent="7n34La2IfHk0FEFPZ-w6-14">
          <mxGeometry x="-0.2045" y="3" relative="1" as="geometry">
            <mxPoint as="offset" />
          </mxGeometry>
        </mxCell>
        <mxCell id="7n34La2IfHk0FEFPZ-w6-4" value="是否合法" style="rhombus;whiteSpace=wrap;html=1;strokeWidth=2;" vertex="1" parent="1">
          <mxGeometry x="313.75" y="210" width="92.5" height="60" as="geometry" />
        </mxCell>
        <mxCell id="7n34La2IfHk0FEFPZ-w6-6" value="记录参数" style="whiteSpace=wrap;html=1;strokeWidth=2;" vertex="1" parent="1">
          <mxGeometry x="480" y="115" width="80" height="30" as="geometry" />
        </mxCell>
        <mxCell id="7n34La2IfHk0FEFPZ-w6-20" style="edgeStyle=orthogonalEdgeStyle;rounded=0;orthogonalLoop=1;jettySize=auto;html=1;" edge="1" parent="1" source="7n34La2IfHk0FEFPZ-w6-10">
          <mxGeometry relative="1" as="geometry">
            <mxPoint x="280" y="130" as="targetPoint" />
          </mxGeometry>
        </mxCell>
        <mxCell id="7n34La2IfHk0FEFPZ-w6-10" value="保存选项" style="rounded=1;whiteSpace=wrap;html=1;strokeWidth=2;" vertex="1" parent="1">
          <mxGeometry x="310" y="320" width="100" height="40" as="geometry" />
        </mxCell>
        <mxCell id="7n34La2IfHk0FEFPZ-w6-17" value="结束" style="strokeWidth=2;html=1;shape=mxgraph.flowchart.terminator;whiteSpace=wrap;" vertex="1" parent="1">
          <mxGeometry x="470" y="225" width="70" height="30" as="geometry" />
        </mxCell>
      </root>
    </mxGraphModel>
  </diagram>
</mxfile>
